<?xml version="1.0"?>
<svg width="511.984" height="511.984" xmlns="http://www.w3.org/2000/svg" xmlns:svg="http://www.w3.org/2000/svg" version="1.1" xml:space="preserve">

 <g class="layer">
  <title>Layer 1</title>
  <g id="svg_5">
   <path d="m509.88,145.06l-8.11,-13.85c-11.95,-20.29 -26.82,-38.99 -44.23,-55.56c-50.29,-47.93 -117.16,-74.32 -188.29,-74.32c-71.11,0 -137.97,26.38 -188.27,74.32c-50.29,47.9 -77.98,111.58 -77.98,179.34c0,67.76 27.69,131.45 77.98,179.36s117.16,74.32 188.27,74.32c71.13,0 138,-26.41 188.29,-74.32c17.41,-16.59 32.28,-35.27 44.23,-55.57l8.11,-13.84l-206.51,-109.94l206.51,-109.93z" fill="#FFCE54" id="svg_1"/>
   <g id="svg_2" opacity="0.2">
    <path d="m305.66,473.95c-71.13,0 -137.97,-26.37 -188.29,-74.29c-50.27,-47.9 -77.96,-111.61 -77.96,-179.34c0,-60.24 21.89,-117.26 62.07,-162.83c-5.99,4.79 -11.8,9.82 -17.38,15.18c-50.29,47.9 -77.98,111.58 -77.98,179.34c0,67.76 27.69,131.45 77.98,179.36s117.16,74.32 188.27,74.32c71.13,0 138,-26.41 188.29,-74.32c5.59,-5.29 10.91,-10.82 15.95,-16.56c-47.85,38.3 -107.7,59.14 -170.94,59.14z" fill="#FFFFFF" id="svg_3"/>
   </g>
   <path d="m312.55,147.61c-12.97,12.37 -34.06,12.37 -47.04,0c-13.03,-12.38 -13.03,-32.48 0,-44.86c12.98,-12.37 34.07,-12.37 47.04,0c13.01,12.38 13.01,32.48 0,44.86z" fill="#434A54" id="svg_4"/>
  </g>
 </g>
</svg>